# xmcd
#
# Track frame offsets:
#	150
#	16474
#	35812
#	52868
#	74591
#	91480
#	111204
#	132924
#	157247
#	178886
#	196268
#	225067
#	243141
#	268691
#
# Disc length: 3896 seconds
# Revision: 0
# Processed by: cddbd v1.5.2PL0 Copyright (c) Steve Scherf et al.
# Submitted via: dBpowerAMP V12.0
#
DISCID=bf0f360e
DTITLE=The Waifs - Ironbark, Disc 1 of 2
DYEAR=2017
DGENRE=Folk/Rock
TTITLE0=Ironbark
TTITLE1=Higher Ground
TTITLE2=Not The Lonely
TTITLE3=I Won't Go Down
TTITLE4=Important Things
TTITLE5=Lion And Gazelle
TTITLE6=Done And Dusted
TTITLE7=Dirty Little Bird
TTITLE8=Grand Plans
TTITLE9=Something's Coming
TTITLE10=Syria
TTITLE11=Amazing Everything
TTITLE12=The Shack
TTITLE13=Long Way From Home
EXTD=
EXTT0=
EXTT1=
EXTT2=
EXTT3=
EXTT4=
EXTT5=
EXTT6=
EXTT7=
EXTT8=
EXTT9=
EXTT10=
EXTT11=
EXTT12=
EXTT13=
PLAYORDER=
